<?xml version="1.0" standalone="no"?>
<!DOCTYPE svg PUBLIC "-//W3C//DTD SVG 20010904//EN"
 "http://www.w3.org/TR/2001/REC-SVG-20010904/DTD/svg10.dtd">
<svg version="1.0" xmlns="http://www.w3.org/2000/svg"
 width="888.000000pt" height="1280.000000pt" viewBox="0 0 888.000000 1280.000000"
 preserveAspectRatio="xMidYMid meet">
<metadata>
Created by potrace 1.15, written by Peter Selinger 2001-2017
</metadata>
<g transform="translate(0.000000,1280.000000) scale(0.100000,-0.100000)"
fill="#000000" stroke="none">
<path d="M4108 12784 c-5 -4 -8 -16 -8 -26 0 -10 -7 -29 -16 -42 -10 -17 -12
-26 -4 -31 19 -12 -9 -35 -44 -36 l-31 -1 28 -11 c16 -6 26 -16 23 -24 -3 -8
2 -13 15 -13 20 0 20 -7 3 -72 -4 -12 6 -22 28 -34 l33 -17 -28 -10 c-22 -7
-32 -5 -46 7 -28 25 -42 20 -35 -11 4 -16 11 -29 16 -31 4 -2 8 -10 8 -18 0
-8 7 -17 15 -20 32 -13 1 -24 -65 -24 -58 0 -71 -3 -80 -19 -16 -31 -12 -41
15 -41 14 0 25 -4 25 -10 0 -5 7 -10 15 -10 8 0 15 -4 15 -10 0 -5 14 -10 30
-10 17 0 30 -5 30 -11 0 -6 9 -8 20 -4 11 4 34 4 50 0 23 -5 30 -12 30 -31 0
-13 -5 -24 -11 -24 -5 0 -7 -4 -4 -10 3 -5 17 -10 31 -10 13 0 24 -4 24 -10 0
-6 -42 -10 -106 -9 -81 0 -124 6 -186 25 -94 28 -133 31 -125 10 3 -8 -1 -17
-10 -20 -12 -5 -13 -9 -3 -21 11 -13 4 -19 -41 -39 -36 -17 -47 -25 -32 -25
12 -1 24 -5 27 -10 7 -10 71 10 88 27 18 18 32 14 18 -3 -9 -11 -10 -19 -3
-26 12 -12 53 -3 53 11 0 5 15 0 34 -11 29 -17 44 -19 95 -13 57 6 61 5 61
-13 0 -16 -11 -23 -45 -33 -24 -7 -51 -10 -60 -7 -20 8 -19 -3 3 -19 16 -13
16 -13 -1 -14 -11 0 -15 -5 -11 -11 4 -7 21 -9 40 -6 19 3 34 2 34 -4 0 -5 -7
-9 -15 -9 -9 0 -15 -9 -15 -25 0 -20 5 -25 25 -25 38 0 31 -32 -10 -51 -36
-17 -48 -6 -22 20 10 10 9 14 -5 22 -9 5 -15 16 -12 23 7 19 -33 27 -47 10 -6
-8 -23 -14 -38 -14 l-26 -1 30 -14 c17 -7 23 -14 15 -14 -8 -1 -16 -11 -16
-25 -1 -18 2 -22 17 -19 11 3 26 0 34 -7 14 -12 13 -15 -10 -30 -28 -18 -24
-30 12 -30 13 0 23 -6 23 -14 0 -9 7 -12 20 -9 11 3 27 -2 36 -11 15 -16 15
-18 -2 -32 -18 -15 -18 -15 7 -10 29 6 99 -18 99 -34 0 -14 -23 -25 -28 -12
-6 20 -32 13 -32 -8 0 -23 -3 -24 -33 -8 -67 35 -88 38 -66 11 12 -14 12 -16
-1 -9 -8 4 -6 0 4 -8 19 -16 19 -16 -5 -16 -19 0 -21 -2 -9 -10 8 -5 27 -10
43 -10 15 0 27 -5 27 -11 0 -7 -12 -10 -30 -7 -40 6 -38 -9 2 -20 l32 -8 -32
-13 c-26 -11 -41 -10 -95 3 -77 19 -96 20 -121 1 -19 -14 -18 -15 12 -21 18
-4 32 -11 32 -16 0 -6 22 -9 55 -6 30 3 55 1 55 -4 0 -4 -10 -9 -22 -9 -22 -2
-43 -4 -62 -8 -5 0 -3 -8 4 -16 13 -16 6 -35 -14 -35 -8 0 -19 -7 -27 -16 -8
-10 -21 -13 -37 -9 -19 5 -23 3 -19 -9 5 -12 -5 -16 -46 -18 -56 -3 -69 -20
-21 -28 19 -4 25 -8 17 -13 -22 -14 -14 -27 17 -27 17 0 30 -4 30 -10 0 -5 -7
-7 -15 -4 -22 9 -18 -14 4 -26 11 -5 29 -10 40 -10 11 0 24 -6 28 -13 4 -7 27
-19 51 -25 53 -16 54 -27 2 -27 -22 -1 -46 -7 -52 -14 -11 -11 -9 -12 10 -6
13 4 22 2 22 -4 0 -7 14 -9 40 -5 30 5 44 3 53 -8 18 -24 69 -28 128 -13 57
15 66 14 53 -7 -5 -7 -7 -20 -6 -28 3 -21 -98 -67 -108 -49 -4 6 -13 9 -19 5
-6 -4 -26 -3 -44 2 -21 6 -40 6 -51 0 -19 -11 -76 -1 -76 13 0 5 9 9 21 9 14
0 18 4 12 13 -4 6 -8 21 -8 32 0 11 -8 21 -17 23 -12 2 -17 -5 -20 -25 -2 -22
-7 -27 -23 -25 -43 8 -108 3 -125 -8 -12 -8 -13 -12 -2 -19 9 -5 0 -10 -28
-14 -23 -3 -50 -13 -61 -23 -14 -13 -34 -17 -67 -16 -30 1 -62 -5 -87 -18 -22
-10 -36 -19 -31 -20 5 0 1 -9 -9 -20 -18 -19 -17 -20 3 -20 12 0 22 -5 22 -10
0 -14 -72 -1 -82 14 -10 16 -137 20 -202 6 -60 -12 -103 -42 -108 -75 -3 -18
2 -20 54 -18 41 1 58 -2 62 -12 3 -8 12 -12 21 -9 8 4 15 1 15 -6 0 -6 -9 -14
-19 -17 -22 -6 -37 -51 -22 -66 7 -7 19 -4 36 7 25 17 27 17 40 0 12 -17 16
-17 39 -4 33 17 57 1 40 -28 -11 -19 -7 -52 7 -52 5 0 13 8 16 18 12 33 44 44
36 12 -6 -23 5 -25 54 -11 37 11 102 -5 110 -26 3 -8 14 -11 29 -7 17 5 29 -1
47 -22 24 -27 25 -28 58 -12 25 13 35 14 41 5 13 -20 9 -34 -9 -41 -39 -14
-77 -40 -65 -44 6 -2 12 -8 12 -14 0 -7 -43 -8 -135 -4 -150 8 -172 5 -185
-30 -8 -20 -17 -24 -52 -25 -24 -1 -33 -4 -20 -6 19 -4 21 -7 11 -19 -14 -18
-4 -45 14 -38 8 3 17 -2 20 -10 5 -11 14 -14 37 -10 27 6 31 4 36 -25 4 -17
13 -31 20 -31 8 0 14 -5 14 -11 0 -6 -15 -9 -37 -7 -35 3 -38 1 -36 -23 1 -26
1 -26 -94 -32 -153 -9 -238 -62 -250 -156 -6 -45 -3 -46 55 -18 17 8 29 7 49
-4 20 -11 27 -11 30 -1 6 16 18 15 38 -4 15 -15 19 -15 56 1 21 10 42 15 45
12 4 -4 -5 -11 -20 -16 -33 -13 -34 -25 -1 -19 14 3 30 -1 36 -8 6 -8 17 -14
24 -14 8 0 15 -5 17 -12 3 -8 14 -7 38 5 49 25 67 22 73 -12 4 -18 14 -32 27
-36 11 -3 20 -13 20 -21 0 -18 -39 -18 -46 0 -9 24 -33 27 -67 9 -23 -12 -55
-16 -114 -15 -68 1 -86 -3 -108 -20 -20 -16 -25 -28 -23 -52 l3 -31 97 3 c85
3 97 1 92 -12 -4 -9 1 -18 10 -22 20 -8 21 -24 1 -24 -8 0 -19 -8 -24 -18 -5
-10 -21 -24 -35 -31 -28 -15 -26 -31 5 -31 31 0 22 -17 -13 -24 -46 -8 -269
-9 -293 -1 -13 4 -30 -1 -48 -15 -35 -28 -34 -36 6 -44 18 -3 38 -15 45 -26
11 -18 8 -24 -20 -50 -18 -16 -48 -34 -65 -40 -27 -10 -33 -17 -33 -41 0 -26
3 -29 33 -29 17 0 45 -7 61 -15 27 -14 34 -14 68 0 56 22 77 20 70 -7 -3 -13
-11 -27 -19 -31 -22 -13 -15 -30 10 -23 13 3 40 1 61 -5 42 -12 66 0 66 33 0
27 34 19 38 -9 3 -19 6 -20 32 -10 23 9 33 8 42 -1 9 -9 6 -12 -18 -13 -16 0
-38 -4 -49 -9 -18 -8 -17 -9 7 -9 15 -1 30 -5 33 -11 3 -5 19 -10 35 -10 16 0
32 -5 35 -10 5 -8 11 -8 20 0 13 11 115 4 115 -8 0 -2 -8 -11 -17 -19 -16 -13
-16 -13 7 -7 14 4 31 9 38 11 6 3 12 0 12 -6 0 -6 13 -11 29 -11 17 0 33 -4
36 -10 8 -13 -12 -13 -120 4 -50 7 -105 21 -123 30 l-33 17 -34 -37 -34 -37
-38 15 c-50 19 -223 13 -223 -8 0 -8 -5 -14 -11 -14 -5 0 -7 -5 -4 -10 4 -6
-10 -17 -29 -25 -46 -19 -46 -35 -1 -35 19 0 35 3 35 8 0 4 21 6 46 4 44 -4
45 -5 28 -23 -9 -10 -27 -19 -38 -19 -41 0 -116 -68 -116 -105 0 -15 7 -17 58
-11 190 21 213 17 172 -24 -11 -11 -20 -24 -20 -30 0 -5 -4 -10 -10 -10 -5 0
-10 -5 -10 -11 0 -6 6 -9 13 -6 16 6 83 -21 74 -29 -4 -4 3 -18 13 -32 28 -35
25 -61 -7 -73 -16 -5 -34 -17 -41 -26 -17 -23 -37 -2 -37 40 0 31 -1 32 -52
37 -57 6 -75 16 -53 30 12 8 9 10 -11 10 -14 0 -30 5 -35 10 -12 12 -44 3 -44
-11 0 -5 -7 -9 -15 -9 -8 0 -15 5 -15 11 0 5 -6 7 -12 3 -7 -5 -27 -7 -44 -5
-21 1 -33 -3 -37 -13 -4 -10 -18 -16 -35 -16 -25 0 -30 -5 -36 -31 -3 -17 -3
-35 0 -40 3 -5 30 -9 60 -9 30 0 54 -4 54 -10 0 -14 47 -13 56 1 4 7 20 9 40
6 18 -3 34 -1 36 4 2 6 23 9 46 7 l43 -3 -32 -33 c-24 -25 -35 -30 -45 -21 -7
6 -41 13 -74 16 -51 5 -66 3 -88 -14 -15 -11 -43 -25 -62 -32 -34 -10 -36 -14
-32 -47 4 -33 6 -36 32 -30 39 7 53 -12 39 -53 -16 -46 -6 -64 26 -49 25 11
34 9 98 -24 12 -6 36 -4 74 7 41 12 58 13 68 5 11 -9 12 -16 2 -31 -6 -10 -17
-19 -23 -19 -7 0 -25 -7 -40 -15 -16 -8 -39 -15 -51 -15 -12 0 -24 -3 -27 -8
-6 -9 81 -9 90 1 4 4 19 7 33 7 23 -1 24 -2 9 -11 -33 -18 -20 -31 23 -24 35
6 41 4 46 -13 8 -31 51 -37 79 -11 15 14 31 20 48 17 15 -3 24 -1 23 6 -2 12
9 12 91 1 36 -6 52 -4 52 4 0 6 -11 11 -25 11 -19 0 -23 4 -18 17 6 14 1 15
-38 10 -54 -7 -75 3 -61 29 5 11 7 25 5 32 -3 6 2 12 11 12 9 0 23 11 32 25
14 21 14 28 3 42 -12 14 -12 16 1 11 9 -3 29 5 45 18 25 20 27 26 15 34 -8 5
-11 13 -6 17 5 4 11 2 13 -5 3 -9 16 -11 40 -6 32 6 52 -4 53 -27 0 -9 -73
-31 -90 -27 -9 2 -15 -4 -15 -16 0 -10 -10 -22 -22 -27 -23 -8 -38 -27 -29
-36 3 -4 14 1 24 10 21 19 61 12 116 -22 39 -24 53 -27 37 -7 -10 11 -8 15 6
19 12 3 8 5 -9 6 -30 1 -38 18 -12 28 12 4 12 8 3 13 -8 6 -5 11 10 20 28 14
85 -3 105 -32 13 -18 21 -20 71 -14 33 4 54 3 51 -3 -3 -5 10 -12 29 -15 34
-7 49 -26 21 -26 -8 0 -39 -24 -68 -52 -29 -29 -62 -58 -73 -64 -19 -11 -19
-11 3 -23 18 -9 27 -10 37 -1 11 9 22 6 49 -15 21 -16 42 -25 52 -21 18 7 10
26 -12 26 -20 0 -18 17 6 42 15 16 17 25 9 35 -22 26 13 55 37 30 4 -4 30 -4
58 -1 l51 7 -19 -21 c-14 -16 -26 -20 -44 -15 -17 4 -23 2 -18 -6 4 -6 18 -11
31 -11 13 0 30 -6 38 -14 7 -8 38 -16 68 -18 65 -4 82 -22 82 -85 0 -51 -8
-63 -27 -38 -12 17 -26 19 -117 17 -57 -2 -112 -5 -121 -8 -19 -6 -25 -34 -8
-34 6 0 10 -7 10 -15 0 -8 -9 -15 -21 -15 -11 0 -17 -4 -14 -10 3 -5 27 -10
52 -10 53 0 50 -9 -8 -26 -26 -8 -41 -8 -45 -2 -18 29 -91 48 -184 48 -130 0
-353 -50 -319 -71 10 -6 6 -11 -14 -18 -15 -6 -33 -8 -41 -5 -8 3 -16 -3 -19
-15 -3 -12 -10 -21 -17 -21 -6 0 -9 4 -6 9 25 40 -258 1 -321 -44 -28 -19 -28
-28 -6 -51 16 -16 16 -18 -5 -32 -34 -23 -26 -32 28 -32 28 0 50 -4 50 -10 0
-5 7 -10 15 -10 18 0 20 -16 3 -24 -7 -3 0 -4 16 -1 23 5 27 3 22 -10 -7 -19
19 -32 37 -17 6 5 26 13 43 16 29 6 33 4 43 -25 9 -25 15 -30 32 -26 13 4 22
0 26 -11 4 -9 17 -30 30 -46 13 -16 22 -31 19 -33 -3 -3 -27 -2 -54 2 -44 6
-49 9 -44 27 5 19 4 20 -27 3 -38 -19 -73 -12 -64 13 6 16 5 16 -14 0 -11 -10
-24 -18 -29 -18 -5 0 -17 -9 -27 -20 -15 -18 -25 -20 -67 -14 -58 8 -175 -12
-196 -33 -18 -19 -18 -33 1 -33 16 0 20 -15 7 -24 -5 -3 -18 -2 -30 1 -16 4
-22 13 -22 32 0 38 -8 43 -41 25 -26 -13 -29 -13 -29 1 0 9 -6 15 -12 14 -31
-4 -40 4 -13 11 30 8 30 8 3 9 -14 0 -29 7 -32 14 -5 10 -7 10 -12 0 -3 -7
-15 -13 -26 -13 -13 0 -18 -5 -15 -14 3 -7 -3 -20 -14 -29 -16 -14 -19 -14
-27 -2 -7 13 -13 11 -42 -10 -38 -28 -50 -31 -50 -11 0 7 -7 20 -16 27 -9 7
-20 22 -25 34 -7 15 -8 10 -5 -21 6 -60 -6 -74 -64 -74 -28 0 -49 -4 -47 -8 1
-5 -17 -26 -39 -48 -44 -42 -70 -89 -76 -141 -4 -28 -1 -33 17 -33 12 0 30 7
41 15 26 20 48 19 40 -1 -4 -12 -2 -15 9 -10 9 3 25 -4 36 -15 19 -19 20 -24
8 -47 l-14 -26 -3 27 c-4 32 -22 36 -29 7 -3 -12 -14 -20 -27 -20 -15 0 -25
-9 -33 -31 -13 -35 -35 -35 -43 1 -5 20 -7 21 -18 7 -10 -12 -11 -21 -3 -36 6
-11 11 -32 11 -47 0 -22 3 -25 12 -16 17 17 26 15 33 -9 5 -15 10 -17 20 -9 9
8 14 8 17 0 2 -6 11 -8 21 -5 9 4 14 11 11 17 -3 5 3 12 15 15 12 3 21 9 21
14 0 12 -14 11 -27 -2 -15 -15 -47 -3 -37 12 4 7 0 17 -9 24 -13 10 -14 15 -4
27 15 20 57 33 57 19 0 -6 7 -11 15 -11 8 0 15 5 15 10 0 6 5 10 10 10 6 0 10
-11 10 -25 0 -14 4 -25 9 -25 5 0 7 14 5 30 -3 19 -1 30 7 30 6 0 9 8 6 20 -5
20 3 26 17 13 3 -4 29 -8 56 -10 41 -2 52 1 62 17 17 27 28 25 28 -5 0 -31 29
-34 37 -5 7 28 41 25 54 -4 l11 -24 45 19 c56 24 55 24 51 -3 -2 -16 -14 -26
-38 -34 -32 -11 -43 -27 -20 -30 21 -3 22 -4 10 -19 -19 -23 -4 -30 24 -11 33
21 96 22 96 1 0 -16 49 -20 85 -6 11 5 27 4 36 -2 10 -6 24 -7 35 -2 11 5 33
9 49 9 23 1 30 6 30 21 0 11 4 26 8 33 10 15 49 16 65 0 9 -9 5 -16 -18 -30
-17 -10 -30 -22 -30 -28 0 -5 -10 -10 -21 -10 -18 0 -19 -3 -9 -15 19 -22 5
-32 -65 -45 -36 -7 -65 -16 -65 -20 0 -4 -12 -10 -27 -13 -16 -3 -36 -9 -45
-12 -36 -14 -17 13 20 28 29 12 32 15 15 16 -29 1 -30 17 -2 31 11 7 19 14 16
16 -6 7 -94 -13 -147 -33 l-45 -17 30 -6 c30 -6 30 -7 -15 -19 -35 -10 -45
-10 -48 -1 -3 7 -13 21 -23 31 -16 16 -17 21 -4 45 8 15 12 31 9 35 -9 16
-147 -2 -172 -22 -14 -10 -31 -19 -38 -19 -8 0 -14 -7 -14 -15 0 -11 -12 -15
-52 -15 -39 0 -69 -9 -124 -36 -73 -36 -88 -51 -78 -79 6 -15 46 -12 69 5 11
9 50 -4 59 -19 9 -14 -36 -43 -48 -31 -14 14 -52 12 -65 -3 -8 -11 -6 -18 9
-32 28 -26 25 -57 -10 -93 -29 -30 -40 -75 -21 -86 15 -9 96 10 94 22 -2 7 15
15 38 18 22 4 48 14 57 23 50 51 104 63 126 29 16 -26 -11 -69 -40 -62 -12 3
-36 -2 -53 -10 -27 -15 -31 -15 -31 -1 0 19 -39 20 -65 1 -18 -13 -18 -14 5
-26 13 -7 43 -10 72 -8 42 5 48 3 43 -12 -3 -9 1 -23 10 -30 8 -7 15 -23 15
-35 0 -34 10 -54 32 -66 16 -8 24 -6 42 14 17 19 30 23 54 19 28 -4 31 -7 26
-28 -5 -18 -2 -24 9 -24 9 0 19 5 22 10 3 6 16 10 29 10 12 0 40 13 62 30 39
29 81 43 56 18 -7 -7 -12 -20 -12 -30 0 -10 -4 -18 -10 -18 -5 0 -10 -6 -10
-14 0 -27 37 -27 85 -1 50 26 75 31 75 16 0 -5 -9 -15 -20 -22 -13 -9 -17 -18
-11 -27 7 -12 13 -11 38 1 16 9 35 23 43 31 9 12 16 13 25 6 7 -6 21 -7 35 -2
19 7 20 9 6 21 -20 17 -21 31 -1 31 15 0 21 -2 80 -32 35 -17 99 -13 116 8 20
24 49 17 49 -11 0 -34 35 -35 44 -1 8 32 36 43 43 16 7 -27 50 -26 80 2 24 23
44 18 24 -6 -10 -12 -9 -14 7 -9 14 3 22 -1 26 -15 9 -26 32 -35 58 -21 11 6
40 8 67 5 25 -3 54 -6 64 -6 19 -1 23 -15 7 -25 -16 -10 -1 -25 26 -25 14 0
24 -6 24 -14 0 -8 7 -17 16 -20 18 -7 47 11 39 24 -12 19 106 29 134 11 22
-14 43 -2 35 22 -5 17 -3 19 18 14 14 -4 57 -10 96 -13 60 -6 72 -10 72 -25 0
-20 -8 -23 -107 -39 -57 -9 -77 -17 -92 -36 -21 -26 -38 -25 -80 8 -17 13 -33
17 -56 12 -22 -4 -49 1 -84 16 -38 17 -54 20 -64 11 -8 -6 -16 -9 -18 -7 -11
11 -113 9 -117 -2 -2 -7 7 -12 25 -12 19 0 24 -3 14 -9 -11 -7 -11 -10 0 -15
11 -5 11 -7 2 -12 -7 -3 -13 -12 -13 -20 0 -8 -4 -14 -8 -14 -5 0 -17 -7 -28
-16 -18 -14 -16 -15 25 -9 31 4 47 2 52 -7 5 -7 34 -15 66 -19 l58 -6 -42 -8
c-40 -7 -59 -24 -30 -26 19 -1 -24 -17 -65 -24 -29 -4 -36 -9 -31 -22 6 -14 4
-14 -18 0 -61 40 -296 26 -293 -17 2 -19 -20 -20 -81 -5 -38 10 -55 8 -114
-10 -38 -12 -83 -33 -100 -47 -31 -25 -98 -50 -108 -40 -3 3 0 13 8 22 12 15
8 16 -59 12 -39 -2 -77 -9 -84 -16 -11 -11 -10 -12 3 -7 10 4 19 0 22 -9 3 -8
-1 -17 -9 -20 -8 -3 -14 -13 -14 -23 0 -22 -42 -52 -48 -34 -7 20 -70 13 -92
-11 -11 -12 -20 -25 -20 -29 0 -4 -34 -10 -75 -14 -71 -7 -75 -8 -69 -30 4
-17 0 -24 -16 -28 -18 -4 -20 -10 -15 -29 7 -22 7 -22 -12 -6 -24 22 -78 34
-87 19 -10 -15 -95 -51 -109 -45 -7 2 -37 -11 -68 -29 -52 -31 -55 -32 -45
-10 6 12 22 25 36 28 27 6 66 32 59 39 -3 4 -193 -46 -271 -71 -10 -3 -18 -13
-18 -23 0 -10 -2 -24 -5 -32 -3 -8 6 -18 24 -25 24 -8 34 -8 50 4 12 8 21 11
21 8 0 -10 -28 -35 -39 -35 -6 0 -16 -10 -22 -22 -7 -13 -19 -28 -28 -35 -12
-9 -14 -16 -5 -30 13 -22 84 -31 84 -11 0 8 6 6 17 -6 13 -13 15 -20 6 -23 -7
-3 -13 -13 -13 -24 0 -12 5 -16 15 -13 8 4 21 2 28 -4 15 -12 107 -13 107 -1
0 5 14 6 30 2 20 -3 30 -1 30 6 0 19 142 11 157 -9 11 -13 15 -11 37 15 20 23
25 26 26 13 0 -11 8 -18 20 -18 23 0 27 18 6 26 -10 4 -15 35 -7 52 0 1 12 -5
26 -14 13 -8 29 -13 35 -9 7 4 14 -2 17 -15 4 -16 13 -21 32 -19 30 2 94 -11
87 -18 -12 -12 -75 -20 -85 -10 -15 15 -42 1 -34 -19 5 -13 2 -16 -9 -12 -11
5 -14 1 -10 -18 3 -19 1 -23 -12 -18 -30 12 -16 -11 26 -40 26 -19 54 -30 74
-30 18 0 30 -4 28 -8 -3 -4 -18 -8 -35 -8 -16 0 -29 -4 -29 -10 0 -5 7 -10 16
-10 11 0 14 -5 10 -16 -3 -9 -6 -24 -6 -35 0 -10 -7 -19 -15 -19 -8 0 -15 -6
-15 -14 0 -16 -21 -26 -59 -26 -14 0 -34 -9 -44 -20 -9 -11 -13 -20 -8 -20 6
0 9 -9 8 -20 -1 -21 -40 -29 -52 -10 -3 6 -1 10 6 10 8 0 8 5 -2 16 -12 15
-15 14 -31 -6 -23 -29 -23 -50 1 -50 10 0 21 -7 25 -15 4 -11 -1 -15 -19 -15
-16 0 -25 -6 -25 -15 0 -9 -8 -18 -17 -21 -10 -4 -31 -12 -48 -19 -16 -8 -50
-16 -75 -20 -25 -4 -49 -13 -53 -21 -4 -8 -14 -14 -22 -14 -8 0 -20 -9 -28
-20 -8 -11 -29 -23 -48 -26 -19 -4 -46 -15 -61 -25 -14 -11 -31 -19 -37 -19
-6 0 -11 -4 -11 -10 0 -5 -13 -16 -30 -25 -23 -12 -30 -22 -30 -45 0 -16 -5
-32 -10 -35 -27 -17 2 -67 45 -78 14 -3 10 -5 -11 -6 -17 0 -34 2 -38 6 -23
24 -96 20 -117 -6 -9 -11 -23 -21 -31 -21 -25 0 -58 -31 -58 -55 0 -13 15 -39
36 -60 29 -30 38 -34 50 -24 8 6 51 18 97 25 112 18 111 18 93 -8 -9 -12 -16
-30 -16 -40 0 -13 -8 -18 -26 -18 -40 0 -82 -30 -104 -75 l-20 -40 30 -3 c33
-4 37 -11 17 -31 -10 -11 -9 -14 1 -18 7 -3 17 -16 22 -29 12 -30 38 -31 42
-2 4 31 35 36 40 7 3 -21 7 -22 85 -20 49 1 84 -2 88 -8 9 -16 45 -13 51 4 5
12 9 13 20 4 11 -9 28 -9 71 0 31 6 69 11 85 11 32 0 35 6 11 32 -15 17 -15
18 0 18 10 0 17 -4 17 -10 0 -18 56 -11 78 10 23 21 30 50 12 50 -5 0 -10 4
-10 9 0 18 65 -5 75 -27 10 -23 25 -30 25 -12 0 6 5 10 10 10 6 0 10 -6 10
-13 0 -14 -85 -55 -244 -119 -56 -22 -105 -43 -111 -48 -5 -4 -29 -14 -53 -21
-24 -7 -49 -21 -57 -31 -7 -11 -14 -15 -16 -9 -6 15 -129 17 -138 2 -4 -7 -34
-15 -65 -18 -41 -4 -60 -11 -67 -24 -8 -15 -6 -19 6 -19 9 0 15 -6 13 -12 -3
-8 -31 -16 -69 -19 -67 -7 -129 -25 -129 -39 0 -4 -13 -24 -30 -45 -33 -42
-38 -79 -14 -106 14 -16 12 -21 -20 -64 -37 -48 -47 -94 -23 -113 25 -21 67
-24 106 -9 34 14 41 14 51 2 19 -23 60 -19 60 5 0 11 7 23 15 26 8 4 15 17 15
29 0 31 17 41 25 15 5 -15 16 -20 46 -21 48 -2 46 -1 90 -23 35 -18 37 -18 76
2 41 21 119 24 132 4 3 -5 15 -11 26 -14 14 -2 19 -10 17 -25 -3 -23 13 -39
23 -23 11 19 43 10 75 -20 28 -26 38 -29 76 -26 25 2 47 6 51 9 3 4 14 2 24
-4 16 -8 19 -6 19 11 0 11 5 20 10 20 6 0 10 -4 10 -10 0 -5 9 -10 19 -10 11
0 23 -5 26 -10 3 -6 1 -10 -4 -10 -6 0 -11 -9 -11 -20 0 -15 7 -20 25 -20 14
0 25 -4 25 -10 0 -5 21 -10 47 -10 44 0 46 -1 30 -17 -15 -15 -24 -15 -79 -5
-98 18 -182 19 -203 2 -15 -12 -53 -14 -221 -12 -193 3 -256 -3 -294 -28 -13
-9 -13 -11 0 -19 26 -17 3 -23 -36 -11 -21 7 -46 22 -57 34 l-18 21 6 -24 c8
-27 15 -27 -163 15 -121 28 -123 28 -116 10 7 -17 -35 -29 -73 -20 -22 4 -25
3 -13 -5 8 -6 27 -11 43 -11 15 0 27 -4 27 -10 0 -5 24 -10 54 -10 30 0 58 -5
61 -11 5 -7 -36 -9 -134 -7 -132 3 -142 2 -162 -18 -26 -27 -20 -40 26 -48 35
-7 44 -19 24 -32 -8 -4 -7 -9 2 -15 11 -7 11 -9 1 -9 -7 0 -11 -3 -9 -7 3 -5
37 -8 76 -7 39 0 71 -2 71 -6 0 -18 -44 -50 -70 -50 -33 0 -80 -19 -80 -32 0
-8 35 -13 55 -8 6 2 25 3 43 2 17 0 32 4 32 9 0 5 11 14 25 19 14 5 30 20 36
32 13 29 58 53 55 30 -2 -9 -8 -18 -14 -20 -17 -5 -15 -42 2 -42 8 0 17 8 20
17 5 12 9 14 18 5 15 -15 65 -16 74 -1 3 6 1 16 -5 22 -20 20 -12 25 47 32 31
3 67 9 78 11 16 4 23 0 27 -16 7 -26 32 -22 32 6 0 15 7 19 32 20 18 0 36 3
39 7 4 4 41 7 83 7 42 0 134 9 205 20 146 23 202 26 174 9 -10 -5 -18 -17 -18
-24 0 -18 -12 -19 -27 -4 -6 6 -25 8 -49 3 -22 -4 -33 -9 -26 -11 17 -6 15
-23 -2 -23 -8 0 -16 -6 -19 -12 -3 -9 -11 -4 -25 12 -16 20 -23 23 -33 12 -7
-6 -22 -12 -34 -12 -12 0 -30 -7 -41 -15 -29 -22 -43 -17 -15 5 l23 20 -36 0
c-25 0 -40 -6 -48 -20 -8 -12 -24 -20 -41 -20 -43 0 -65 -16 -92 -69 -23 -47
-23 -49 -6 -65 21 -19 24 -19 73 -6 25 7 35 15 32 25 -4 9 7 17 35 26 34 10
45 9 76 -5 23 -11 46 -15 66 -11 39 9 57 -7 51 -45 -3 -20 -10 -30 -22 -30
-13 0 -17 -8 -16 -37 1 -20 7 -38 14 -41 7 -2 10 2 6 12 -3 9 -1 16 5 16 6 0
16 12 22 26 9 26 10 26 28 8 10 -10 17 -22 15 -26 -2 -3 2 -8 8 -11 10 -3 8
-10 -6 -26 -12 -13 -14 -21 -7 -21 7 0 9 -5 6 -10 -4 -7 2 -9 17 -5 19 5 27 1
36 -20 6 -14 24 -30 39 -37 l28 -11 -42 -9 c-24 -5 -42 -12 -42 -16 4 -22 -4
-31 -28 -35 l-28 -4 28 -2 c15 0 27 -4 27 -9 0 -4 -44 -7 -97 -8 -121 0 -189
-21 -233 -70 -34 -40 -40 -86 -15 -134 19 -36 42 -39 56 -7 14 31 66 54 89 39
10 -6 27 -8 38 -5 13 3 32 -3 48 -16 34 -27 52 -26 89 3 25 20 34 22 58 13 20
-7 35 -6 51 2 18 10 47 6 166 -25 80 -20 160 -39 178 -42 l34 -4 -58 -24 c-64
-26 -90 -46 -80 -63 4 -6 17 -11 29 -11 22 -1 22 -1 3 -15 -29 -22 -115 -19
-151 5 -33 22 -45 25 -45 10 0 -5 12 -16 27 -24 l28 -14 -40 -12 c-75 -21
-139 -64 -150 -98 -6 -21 -16 -32 -27 -32 -11 0 -18 -7 -18 -19 0 -20 -18 -31
-50 -31 -10 0 -37 -16 -59 -34 -38 -32 -45 -35 -91 -29 -27 3 -69 1 -94 -6
-31 -8 -53 -8 -72 -1 -20 8 -44 6 -95 -6 -66 -16 -148 -16 -194 1 -18 6 -18 5
-3 -7 9 -7 25 -19 35 -26 15 -11 11 -12 -30 -9 -48 5 -64 -4 -59 -33 2 -11 -8
-16 -35 -17 -79 -5 -136 -27 -222 -83 -83 -55 -111 -85 -94 -100 4 -4 22 -12
39 -18 28 -9 34 -7 53 14 28 32 42 32 111 -8 54 -30 55 -30 116 -1 47 22 59
32 58 51 0 16 4 21 14 17 7 -3 32 -8 55 -12 23 -3 47 -13 53 -22 10 -13 14
-13 38 2 14 10 27 14 27 10 6 -30 2 -50 -14 -66 -27 -27 -18 -51 21 -57 23 -4
38 -14 52 -38 15 -24 27 -32 49 -32 28 0 49 -15 38 -26 -3 -3 -35 -9 -72 -15
-40 -5 -77 -17 -92 -29 -14 -11 -41 -20 -60 -20 -37 0 -73 -15 -73 -30 0 -5 9
-18 21 -29 17 -15 19 -23 10 -39 -21 -40 -14 -51 26 -45 21 3 54 14 73 25 39
20 60 23 60 8 0 -5 7 -10 15 -10 8 0 15 7 15 15 0 21 33 19 61 -5 21 -17 22
-19 6 -20 -10 0 -16 -4 -13 -9 3 -4 37 -11 77 -15 39 -3 80 -11 91 -17 19 -10
19 -11 -5 -33 -14 -13 -48 -32 -76 -42 -33 -12 -50 -23 -47 -31 3 -8 -2 -13
-12 -13 -29 0 -128 28 -189 54 -32 13 -69 24 -83 24 -23 0 -116 21 -165 37
-11 4 0 -5 24 -19 23 -14 55 -26 69 -26 30 0 223 -50 235 -61 10 -7 -6 -11
-120 -29 -40 -7 -73 -15 -73 -19 0 -4 13 -6 30 -3 36 5 39 -10 5 -26 -34 -16
-31 -32 5 -32 39 0 39 -16 0 -25 -16 -4 -36 -15 -43 -25 -9 -14 -28 -20 -66
-22 -57 -3 -57 -4 -86 -70 -11 -24 -27 -40 -48 -48 -18 -6 -47 -18 -65 -26
-36 -15 -40 -10 -15 18 22 24 2 23 -30 -2 -31 -24 -45 -26 -26 -4 12 15 11 16
-9 10 -12 -3 -31 -9 -43 -12 -12 -3 -53 -7 -93 -8 -45 -1 -85 -9 -109 -20 -32
-16 -53 -18 -135 -12 -98 6 -144 -3 -113 -23 17 -11 177 -25 191 -16 5 3 10
-1 10 -9 0 -11 8 -13 36 -9 29 5 36 3 32 -8 -3 -8 -11 -14 -19 -14 -8 -1 -13
-6 -11 -13 1 -7 -2 -12 -8 -12 -14 0 -40 -55 -40 -85 0 -15 11 -36 26 -50 23
-21 33 -23 102 -20 42 2 87 7 100 10 14 5 29 2 40 -7 16 -14 75 -38 93 -38 5
0 9 7 9 15 0 23 37 55 62 55 l23 0 -24 -19 c-17 -13 -22 -24 -17 -36 5 -15 14
-17 51 -12 l44 7 -24 -47 c-40 -74 -37 -80 46 -79 39 1 73 -2 76 -6 8 -14 50
-8 98 12 59 25 70 25 96 -1 15 -15 28 -19 47 -14 15 4 28 8 30 10 2 2 -11 23
-28 46 -29 41 -30 44 -11 50 10 4 22 12 26 18 11 18 30 13 70 -19 44 -35 65
-38 65 -10 0 24 41 28 63 6 7 -8 25 -16 38 -18 18 -2 24 -9 24 -28 0 -19 -5
-24 -19 -22 -11 2 -17 -1 -14 -10 3 -7 14 -14 26 -16 12 -2 22 -10 22 -18 0
-17 44 -29 62 -18 16 11 108 12 108 2 0 -9 -41 -48 -51 -48 -4 0 -16 -13 -26
-30 -9 -16 -24 -30 -33 -30 -8 0 -1 -7 15 -16 41 -21 47 -28 39 -48 -6 -15
-15 -17 -58 -12 -28 4 -66 8 -84 9 -18 1 -36 7 -40 14 -5 8 -12 8 -26 -3 -17
-12 -18 -14 -3 -14 9 0 17 -4 17 -9 0 -16 -20 -23 -33 -13 -7 5 -24 12 -39 16
-36 8 -68 54 -47 67 12 7 12 10 0 18 -17 11 1 23 23 15 9 -3 16 -1 16 4 0 15
-34 24 -64 16 -19 -4 -28 -2 -32 10 -3 9 -11 16 -16 16 -6 0 -8 -7 -4 -15 7
-20 -4 -19 -20 3 -13 16 -15 16 -29 -2 -18 -23 -20 -52 -4 -62 8 -5 8 -9 -1
-14 -9 -6 -9 -13 -1 -28 10 -18 16 -62 9 -62 -2 0 -27 9 -56 20 -54 20 -90 24
-129 14 -32 -9 -29 -24 5 -24 15 0 34 -4 42 -10 20 -12 8 -16 -105 -30 -104
-14 -235 -45 -282 -67 -20 -9 -33 -23 -33 -34 0 -17 -7 -19 -57 -18 -65 2
-156 -16 -162 -32 -1 -5 -12 -18 -23 -29 -16 -15 -18 -22 -8 -40 10 -18 17
-20 54 -15 33 5 47 3 59 -10 23 -22 21 -35 -4 -35 -12 0 -23 -8 -26 -20 -5
-20 -33 -28 -33 -9 0 22 -66 38 -141 34 -115 -6 -151 -14 -156 -36 -9 -33 -56
-22 -188 46 -116 59 -132 65 -188 65 -72 0 -85 -6 -82 -40 1 -14 -7 -32 -19
-43 l-21 -19 25 6 c66 16 82 18 115 12 21 -4 35 -13 35 -21 0 -17 12 -19 26
-5 6 6 32 -4 74 -30 36 -22 73 -40 83 -40 23 0 22 -17 -3 -30 -11 -6 -20 -15
-20 -20 0 -12 189 -11 249 2 29 6 48 5 55 -2 7 -7 989 -10 3150 -10 1726 0
3137 3 3133 6 -3 3 -25 10 -48 15 -24 6 -49 15 -57 21 -11 9 -7 14 19 22 42
14 58 39 41 66 -10 16 -10 20 2 20 7 0 35 9 61 21 30 13 51 17 57 11 6 -6 24
-6 46 -1 21 4 41 4 47 -1 7 -6 15 -6 21 0 6 6 29 0 63 -16 43 -19 56 -22 63
-12 11 17 10 65 -1 86 -8 14 -1 21 35 36 l45 18 26 -26 c14 -14 30 -26 35 -26
6 0 33 -12 61 -26 55 -27 93 -27 150 3 24 12 34 12 58 3 31 -13 59 -1 59 26 0
20 19 27 35 14 12 -10 21 -10 44 0 22 9 34 9 51 0 24 -13 50 1 50 27 0 11 7
14 23 9 12 -3 25 -6 30 -6 4 0 7 -7 7 -15 0 -32 77 -48 100 -20 8 10 11 32 7
62 l-5 46 60 -62 c47 -50 64 -62 86 -60 15 2 37 -2 49 -9 11 -6 55 -14 96 -16
42 -2 91 -11 111 -21 34 -16 38 -16 55 -1 15 14 23 15 44 5 32 -15 57 -6 57
20 0 26 34 44 72 39 19 -3 32 0 35 9 3 7 16 13 28 13 13 0 27 5 30 10 3 6 19
10 35 10 31 0 80 48 80 78 0 35 -175 125 -296 152 -64 15 -204 14 -237 -1 -38
-17 -52 -1 -48 56 l3 45 -67 0 c-36 0 -71 5 -78 11 -7 6 -46 31 -87 55 -41 25
-106 71 -144 104 -81 70 -121 85 -332 124 -76 14 -155 30 -174 36 -47 14 -133
13 -148 -2 -9 -9 -24 1 -66 40 -30 29 -67 57 -82 62 -42 16 -86 -6 -52 -26 19
-12 -24 -23 -46 -12 -10 6 -41 12 -67 14 -49 3 -93 24 -103 49 -7 19 21 27 38
10 12 -13 16 -12 27 1 9 11 9 18 1 26 -29 29 10 30 53 2 13 -8 26 -10 34 -4
12 7 12 12 -2 34 -23 35 -80 62 -176 85 -43 10 -89 26 -102 34 -13 8 -43 21
-66 28 -24 7 -43 18 -43 26 0 16 12 17 28 1 7 -7 33 -18 60 -25 97 -26 100
-27 106 -5 15 45 -28 79 -115 89 -33 4 -53 12 -59 24 -6 10 -19 21 -30 24 -28
9 -25 18 10 33 22 10 34 10 50 2 14 -8 26 -8 40 0 23 12 94 -14 119 -43 19
-24 48 -21 76 7 15 15 27 21 31 14 7 -12 74 50 74 68 0 7 -8 18 -17 23 -15 8
-10 10 22 11 57 1 72 12 57 45 -10 21 -9 27 3 31 8 4 21 2 28 -4 6 -5 39 -9
72 -8 55 1 60 3 63 24 5 34 -33 70 -92 88 -40 12 -239 31 -368 35 -10 0 -34
-8 -54 -17 -31 -15 -42 -16 -78 -5 -22 6 -61 18 -86 25 l-44 12 24 17 c21 15
23 19 10 27 -8 5 -22 10 -31 10 -23 0 -30 11 -18 26 7 8 22 11 42 7 27 -5 30
-4 23 13 -13 33 -12 38 10 42 20 3 22 -1 18 -47 -3 -45 0 -54 24 -76 17 -16
39 -25 58 -25 30 0 32 2 30 33 -1 29 2 32 25 29 35 -3 57 23 41 49 -7 10 -12
23 -12 28 0 5 44 19 98 31 53 11 124 30 157 42 36 13 84 21 118 21 41 -1 60 3
64 13 7 19 33 18 47 -2 6 -8 25 -16 42 -16 35 -1 57 -15 67 -42 6 -16 15 -18
62 -14 30 3 55 1 55 -3 0 -27 130 -60 155 -39 11 9 26 9 65 1 62 -13 56 -14
72 2 32 31 62 35 101 15 24 -12 35 -23 30 -31 -5 -9 -2 -8 9 1 13 11 16 9 16
-13 0 -14 -5 -28 -10 -31 -6 -4 -5 -10 3 -15 9 -5 10 -9 2 -9 -6 0 -9 -9 -6
-20 6 -21 23 -28 23 -9 0 7 10 9 26 6 19 -3 24 -1 19 10 -3 11 -1 13 10 9 28
-10 15 13 -15 29 -28 15 -38 34 -24 48 8 7 38 -21 53 -50 6 -13 16 -23 22 -23
6 0 8 4 4 9 -3 5 -1 12 5 16 5 3 10 1 10 -6 0 -10 3 -10 13 0 10 11 10 14 0
18 -23 8 -14 40 12 47 14 4 25 11 25 17 0 6 5 7 12 3 7 -4 8 -3 4 4 -4 6 0 25
9 41 40 78 -6 152 -102 165 -48 6 -56 11 -105 68 -104 121 -131 144 -197 163
-43 13 -61 24 -61 35 0 44 -69 69 -211 77 -115 6 -112 4 -134 81 -8 28 18 41
42 21 9 -8 38 -14 64 -14 43 0 52 -4 84 -38 31 -33 39 -37 52 -25 9 7 22 28
30 47 13 31 13 35 -6 53 -12 10 -21 25 -21 33 0 8 -11 22 -24 31 -15 9 -23 21
-19 30 3 8 -2 25 -11 39 -9 14 -12 25 -7 25 5 0 12 -4 15 -9 3 -4 22 -11 42
-14 20 -3 46 -14 57 -24 20 -17 20 -17 14 0 -6 17 -2 19 40 15 27 -3 56 -8 66
-12 13 -6 17 -4 17 11 0 11 11 25 24 33 22 11 27 10 49 -14 13 -14 34 -26 46
-26 12 0 21 -6 21 -16 0 -8 5 -12 11 -8 6 3 9 22 7 40 -4 31 -2 34 22 34 14 0
32 -6 38 -12 10 -10 19 -6 41 20 57 64 21 96 -140 123 -71 12 -130 28 -161 44
-47 25 -54 26 -118 16 -98 -15 -97 -16 -102 24 -5 42 4 44 29 9 l19 -26 42 21
c47 24 73 26 90 9 8 -8 18 -9 35 -1 25 12 62 -1 52 -18 -4 -5 5 -9 19 -9 14 0
26 5 26 11 0 6 6 9 13 6 6 -2 11 -10 10 -18 -1 -8 9 -22 22 -32 33 -24 58 -10
79 43 48 122 -30 226 -180 238 -54 4 -70 10 -94 33 l-28 28 -116 -6 c-107 -6
-118 -4 -139 14 -12 10 -35 25 -51 31 -44 19 -25 24 43 12 44 -8 66 -8 81 0
29 16 22 30 -35 67 -43 29 -73 60 -63 67 51 34 54 35 87 18 32 -15 34 -15 51
9 18 22 21 23 52 11 64 -26 66 -26 87 9 12 19 21 51 21 73 0 67 -89 135 -180
136 -17 0 -33 12 -50 35 -40 56 -87 83 -178 101 -70 14 -97 15 -171 5 -120
-15 -176 -14 -195 4 -8 8 -20 15 -27 15 -8 0 -5 8 6 20 15 16 17 26 9 48 -12
34 -73 59 -169 68 -38 4 -61 9 -50 12 29 6 55 32 48 48 -3 10 5 16 26 20 22 5
30 11 27 20 -8 20 11 17 34 -6 28 -28 45 -25 76 15 22 29 29 33 46 24 10 -6
31 -9 46 -8 15 1 40 -4 56 -12 27 -12 30 -12 44 9 13 20 16 21 32 7 51 -46
117 -20 127 52 5 39 4 42 -28 58 -23 12 -81 22 -182 30 -132 11 -151 15 -170
35 l-22 22 44 -22 45 -22 20 25 c29 34 65 52 79 38 28 -28 81 8 75 51 -9 64
-219 88 -325 37 l-41 -20 -60 45 c-33 26 -67 46 -76 46 -9 0 -16 7 -16 15 0 9
9 15 25 15 29 0 31 7 10 30 -14 16 -12 18 37 23 29 4 63 4 74 1 16 -4 23 0 28
18 5 14 9 18 13 11 2 -7 21 -13 40 -13 33 0 35 2 29 25 -6 22 -3 25 19 25 14
0 25 5 25 10 0 7 6 7 18 1 22 -11 81 8 96 31 8 13 6 22 -8 37 -19 21 -19 21
12 21 18 0 32 -4 32 -10 0 -5 9 -10 21 -10 27 0 15 17 -24 35 l-32 15 43 -5
c34 -4 42 -2 42 11 0 11 6 14 20 9 14 -4 20 -2 20 9 0 25 -12 46 -26 46 -8 0
-14 5 -14 10 0 6 7 10 16 10 26 0 103 59 110 84 18 72 -105 126 -288 126 -76
0 -79 1 -108 33 -37 40 -37 47 -1 47 31 0 81 34 81 55 0 15 -23 41 -41 47 -22
7 14 48 42 48 55 0 71 67 25 107 -39 33 -128 56 -195 50 -51 -4 -65 0 -153 42
-85 40 -98 49 -98 71 1 23 2 23 14 8 18 -24 66 -42 66 -25 0 12 53 37 78 37 7
0 12 -7 12 -16 0 -14 10 -16 63 -12 43 3 72 0 94 -10 35 -17 60 -11 70 15 3
10 15 29 27 42 15 17 17 25 9 28 -34 12 -6 23 51 21 72 -3 109 17 104 58 -2
12 5 31 15 42 23 26 14 44 -34 72 -35 19 -49 21 -102 16 -90 -10 -86 -10 -295
23 -113 18 -218 40 -255 55 -34 13 -92 26 -128 29 -36 3 -85 13 -108 23 -34
13 -40 20 -35 36 4 13 -2 28 -16 43 -14 15 -18 25 -11 30 18 11 12 43 -11 60
-13 9 -53 25 -90 36 -45 14 -68 26 -68 36 0 11 7 14 28 10 15 -3 55 -10 89
-16 80 -15 116 -28 108 -41 -4 -6 -1 -17 5 -25 6 -8 9 -23 5 -34 -3 -10 -1
-22 5 -26 6 -3 8 -11 5 -16 -9 -14 8 -11 32 6 11 8 30 35 42 60 23 49 31 54
52 29 11 -14 13 -14 21 0 5 9 17 16 26 16 13 0 14 -2 4 -8 -10 -7 -8 -14 8
-34 21 -28 26 -43 10 -33 -5 3 -23 -9 -39 -27 -34 -37 -39 -53 -15 -44 24 9
66 -4 60 -20 -9 -24 27 -35 60 -18 67 35 85 73 51 107 -15 15 -20 31 -18 60 1
22 -4 48 -13 62 -30 46 -125 57 -167 19 -24 -22 -74 -10 -106 26 -13 15 -51
40 -84 55 -32 14 -59 33 -59 41 0 8 -4 14 -9 14 -5 0 -22 5 -36 10 l-27 10 31
27 c28 25 29 28 14 45 -9 10 -22 18 -29 18 -16 0 -39 39 -29 48 4 4 11 -1 16
-10 6 -10 17 -14 29 -11 14 4 30 -3 45 -17 22 -21 26 -22 47 -8 16 11 41 14
79 12 42 -3 59 -1 69 11 13 16 14 14 -36 83 -21 29 -3 55 32 46 17 -4 26 -1
30 10 8 21 53 11 75 -16 13 -17 20 -18 36 -9 24 12 35 35 27 56 -5 11 1 15 19
15 14 0 30 7 35 16 9 16 11 16 33 0 29 -20 68 -21 96 -1 32 22 39 75 18 136
-11 37 -13 55 -6 62 6 6 11 18 11 27 0 8 13 24 30 35 16 11 34 30 41 42 18 33
-10 59 -75 72 -64 13 -304 36 -373 36 -60 0 -109 -29 -107 -64 0 -11 0 -21 0
-21 -49 7 -326 137 -326 153 0 5 16 6 35 3 27 -5 37 -3 41 9 8 19 43 19 111 1
44 -12 55 -12 72 0 11 8 24 14 28 13 37 -6 43 18 17 69 -18 37 -60 52 -144 52
-66 0 -123 15 -140 35 -16 19 2 90 25 99 8 3 15 16 15 30 0 19 6 25 36 30 19
4 41 3 47 -2 7 -6 28 -12 47 -14 32 -3 35 -1 35 22 0 16 -8 28 -22 35 -15 6
-23 18 -23 33 0 15 -7 26 -20 29 -22 6 -27 23 -7 24 59 4 71 6 74 16 3 7 11 9
19 6 8 -3 14 0 14 6 0 19 27 12 33 -9 5 -21 31 -27 42 -10 8 13 55 13 55 0 0
-5 13 -7 29 -4 35 7 51 -21 24 -43 -17 -13 -17 -14 -1 -9 10 3 20 1 23 -4 12
-19 24 -10 22 15 -1 14 -9 30 -17 35 -11 7 -9 11 11 20 14 6 34 24 44 41 15
21 28 29 50 29 38 0 99 32 103 54 10 51 -67 137 -140 157 -27 7 -71 9 -115 5
-50 -5 -73 -3 -73 4 0 19 -102 60 -149 60 -25 0 -82 -5 -128 -12 -45 -7 -84
-10 -87 -7 -2 2 -6 23 -9 47 -2 23 -6 44 -8 45 -13 10 -98 37 -117 37 -12 0
-22 5 -22 10 0 6 9 10 20 10 15 0 20 7 20 25 0 18 -5 25 -20 25 -11 0 -20 5
-20 10 0 6 16 8 40 4 33 -5 43 -3 54 12 8 10 11 24 8 32 -4 12 -1 12 16 3 11
-6 24 -16 27 -21 4 -6 18 -2 36 11 20 14 38 19 54 15 20 -5 23 -3 18 10 -5 14
-2 16 15 12 12 -4 22 -2 22 3 0 6 6 9 13 8 6 -1 21 -1 32 0 20 2 20 2 1 16
-16 12 -17 15 -4 15 20 0 42 -26 33 -40 -12 -19 10 -9 43 19 52 44 42 69 -38
96 -36 12 -92 32 -124 44 -33 11 -83 21 -113 21 -29 0 -53 5 -53 10 0 18 -89
11 -130 -10 -51 -26 -64 -26 -50 -1 18 35 12 79 -13 93 -77 43 -101 63 -83 66
10 2 23 -1 29 -7 7 -7 16 -7 29 0 11 6 31 8 46 5 38 -8 56 6 48 38 -3 14 -10
26 -14 26 -5 0 -17 6 -28 14 -18 14 -18 15 8 35 28 22 54 83 43 101 -3 5 -14
10 -24 10 -20 0 -59 26 -50 34 3 3 20 1 38 -5 41 -15 53 -1 38 46 -16 53 -7
61 66 61 36 -1 63 2 60 7 -2 4 -17 7 -32 7 -45 0 -91 12 -91 23 0 6 8 19 17
29 16 18 16 19 -5 25 -29 7 -23 28 9 28 17 0 24 -5 23 -18 -2 -21 35 -32 74
-22 15 3 38 7 50 7 18 0 23 4 19 19 -4 14 0 19 13 19 11 0 22 5 25 10 3 6 21
10 40 10 19 0 36 4 39 9 8 12 -30 44 -99 84 -33 19 -68 44 -79 55 -21 24 -14
57 15 72 26 15 24 52 -6 80 -32 30 -93 36 -251 21 l-126 -12 -49 32 c-49 31
-52 48 -8 49 9 0 22 6 28 14 10 11 8 17 -6 25 -16 9 -15 10 9 11 15 0 30 -4
33 -10 3 -5 11 -10 17 -10 6 0 5 7 -3 17 -13 15 -11 16 13 11 15 -3 51 -1 80
4 29 5 67 9 85 9 68 2 79 40 21 74 -47 27 -297 29 -347 2 l-34 -19 29 41 c27
38 32 41 80 41 40 0 55 5 73 23 14 16 19 30 15 42 -6 15 -4 16 14 6 24 -13 68
-6 92 14 8 7 24 15 35 17 12 2 20 11 20 23 0 26 -57 55 -107 55 -21 0 -38 5
-38 11 0 20 -75 41 -154 43 -69 1 -83 4 -103 24 -13 13 -23 28 -23 35 0 7 -21
19 -47 27 -31 10 -52 24 -60 40 -17 35 -7 42 33 23 33 -16 37 -16 68 1 27 15
37 16 53 5 15 -9 25 -9 39 -1 17 10 17 11 2 12 -10 0 -18 5 -18 10 0 16 23 11
50 -10 14 -11 31 -20 39 -20 8 0 5 7 -9 18 -25 20 -19 47 12 55 12 4 17 10 13
18 -5 7 -3 10 6 7 8 -3 13 -15 11 -30 -4 -30 14 -46 31 -28 9 10 9 14 0 17
-21 8 -14 23 10 23 28 0 67 26 67 46 0 20 -18 17 -32 -6 -7 -11 -17 -20 -21
-20 -12 0 -46 42 -47 57 0 6 -8 14 -17 16 -17 4 -17 5 0 6 9 0 17 7 17 15 0
10 14 16 43 18 34 2 42 7 42 23 0 24 -56 55 -97 55 -16 0 -28 4 -28 9 0 5 -9
7 -20 4 -11 -3 -20 0 -20 6 0 6 -7 8 -17 4 -11 -4 -24 3 -39 22 -21 27 -21 30
-6 41 13 10 14 15 5 25 -10 10 -9 15 5 25 16 12 15 13 -8 23 -14 5 -18 10 -9
10 9 1 16 7 16 15 0 8 -6 12 -15 8 -11 -4 -11 0 3 21 18 28 12 52 -11 43 -8
-3 -14 -1 -14 4 0 9 15 14 33 11 5 -1 6 3 2 9 -3 5 -18 8 -33 5 l-27 -5 28 13
c30 14 25 26 -18 41 -16 6 -17 9 -5 16 12 7 12 12 -3 28 -10 10 -15 26 -12 34
9 23 -46 58 -89 58 -20 0 -54 9 -76 20 -22 11 -49 20 -60 20 -34 0 -12 20 23
21 30 1 29 2 -8 8 -107 18 -69 38 76 40 70 1 89 4 102 19 10 10 17 26 17 35 0
8 9 18 19 22 10 3 21 14 24 25 3 14 17 21 46 26 54 9 67 25 40 50 -19 17 -38
19 -188 19 -130 0 -171 3 -188 15 -13 8 -23 20 -23 26 0 23 -29 35 -111 45
-117 16 -120 17 -71 39 47 21 55 45 17 54 -14 4 -35 16 -46 27 -15 15 -30 19
-66 17 -49 -3 -71 15 -31 25 21 6 21 7 3 27 -22 24 -25 20 50 55 33 15 55 29
48 32 -7 2 -22 -1 -34 -7 -12 -7 -19 -8 -15 -2 8 13 -57 26 -114 24 -44 -2
-45 -2 -19 12 14 8 38 31 53 50 23 30 31 35 56 29 23 -4 30 -2 30 11 0 9 -5
16 -11 16 -6 0 -8 8 -4 19 8 25 -16 33 -55 20 -33 -12 -80 -5 -80 11 0 6 23
10 50 10 36 0 50 4 50 14 0 8 -6 16 -12 19 -21 7 -4 16 44 26 32 5 57 19 83
44 l37 36 -44 11 c-83 23 -88 26 -82 60 5 24 0 36 -25 65 -35 40 -37 48 -16
65 8 7 15 19 15 26 0 8 10 14 25 14 33 0 32 24 -2 48 -20 13 -39 18 -65 14
-21 -2 -38 -2 -38 1 0 13 87 87 103 87 22 0 22 9 0 25 -15 11 -15 13 6 20 16
5 20 12 16 26 -4 11 -1 26 5 34 9 11 3 15 -32 20 -24 4 -56 2 -71 -4 -21 -8
-42 -7 -85 4 -31 8 -74 17 -96 20 -44 7 -39 17 19 35 22 7 46 17 53 23 10 8
16 7 23 -6 10 -18 39 -24 39 -8 0 5 -12 23 -26 40 -32 38 -84 44 -84 10 0 -20
-4 -21 -51 -17 -72 7 -89 32 -35 51 14 5 -13 47 -29 47 -23 0 -18 31 6 37 19
5 19 7 -7 34 -15 16 -30 45 -33 64 -3 20 -9 33 -13 29z m12 -400 c0 -2 -7 -4
-15 -4 -8 0 -15 4 -15 10 0 5 7 7 15 4 8 -4 15 -8 15 -10z m-125 -65 c4 -6 5
-12 2 -15 -7 -7 -37 7 -37 17 0 13 27 11 35 -2z m-172 -786 c-7 -2 -19 -2 -25
0 -7 3 -2 5 12 5 14 0 19 -2 13 -5z m1482 -1894 c11 -16 1 -20 -35 -12 -29 5
-31 7 -15 14 29 11 43 10 50 -2z m792 -1915 c-3 -3 -12 -4 -19 -1 -8 3 -5 6 6
6 11 1 17 -2 13 -5z m-4357 -2903 c0 -10 -30 -24 -37 -17 -3 3 -2 9 2 15 8 13
35 15 35 2z m300 -1701 c0 -5 -5 -10 -11 -10 -5 0 -7 5 -4 10 3 6 8 10 11 10
2 0 4 -4 4 -10z m-785 -2250 c-3 -5 -10 -10 -16 -10 -5 0 -9 5 -9 10 0 6 7 10
16 10 8 0 12 -4 9 -10z m5802 -191 c20 -12 49 -25 67 -29 l31 -8 -30 -1 c-16
0 -48 11 -70 24 -47 29 -75 32 -75 7 0 -25 -28 -62 -56 -72 -21 -8 -23 -12
-12 -35 10 -22 8 -28 -8 -40 -18 -14 -18 -14 4 -15 26 0 30 -18 5 -27 -14 -5
-12 -8 7 -15 17 -6 20 -12 13 -19 -8 -8 -17 -7 -33 1 -12 7 -20 8 -16 2 3 -5
-2 -13 -12 -17 -14 -5 -12 -9 13 -23 17 -8 40 -17 53 -18 13 -2 30 -8 38 -15
8 -6 35 -13 61 -15 27 -2 64 -6 83 -8 19 -3 43 -5 53 -5 10 -1 17 -9 17 -20 0
-23 25 -47 35 -31 3 5 14 10 23 10 11 0 5 -7 -15 -20 -33 -19 -33 -19 -66 0
-21 12 -90 29 -179 44 -169 28 -216 40 -243 60 -29 21 -11 31 32 18 48 -15 65
0 32 27 -13 10 -21 23 -17 27 5 4 17 -1 29 -11 17 -17 22 -17 29 -5 14 22 12
56 -5 98 l-15 37 21 -27 c31 -41 43 -35 36 17 -7 44 -6 45 23 45 37 0 48 18
22 35 -11 8 -22 24 -25 36 -6 21 -4 22 55 15 35 -3 75 -15 95 -27z m65 -72
c-25 -26 -28 -47 -9 -67 10 -12 9 -12 -5 -1 -10 7 -18 23 -18 34 0 22 27 57
43 57 6 0 1 -10 -11 -23z"/>
<path d="M3870 11100 c-9 -6 -10 -10 -3 -10 6 0 15 5 18 10 8 12 4 12 -15 0z"/>
<path d="M5157 10489 c7 -7 22 -13 33 -14 26 -2 13 10 -20 20 -20 6 -23 5 -13
-6z"/>
<path d="M5345 9590 c-4 -6 7 -10 27 -10 25 0 29 3 18 10 -19 13 -37 13 -45 0z"/>
<path d="M3250 8449 c0 -5 5 -7 10 -4 6 3 10 8 10 11 0 2 -4 4 -10 4 -5 0 -10
-5 -10 -11z"/>
<path d="M6265 6171 c-3 -5 -2 -12 3 -15 5 -3 9 1 9 9 0 17 -3 19 -12 6z"/>
<path d="M1975 5950 c-3 -6 1 -7 9 -4 18 7 21 14 7 14 -6 0 -13 -4 -16 -10z"/>
<path d="M2130 5489 c17 -17 30 -39 28 -48 -4 -22 -34 -21 -30 2 4 21 -11 22
-28 2 -7 -8 -20 -15 -29 -15 -13 1 -13 3 3 15 23 17 18 25 -18 29 -14 1 -29 6
-33 9 -3 4 -15 7 -25 7 -15 0 -18 -5 -12 -22 8 -29 23 -48 38 -48 6 0 16 -10
21 -22 13 -30 39 -29 43 0 3 21 29 28 42 10 12 -15 58 5 70 30 l12 27 19 -24
c10 -13 19 -36 19 -52 0 -34 24 -40 40 -10 14 27 13 31 -9 31 -13 0 -20 9 -24
30 -5 24 -12 30 -32 30 -14 0 -25 5 -25 11 0 5 -4 8 -8 5 -5 -3 -16 4 -25 15
-9 10 -28 19 -43 19 l-26 0 32 -31z"/>
<path d="M8322 660 c-16 -14 -19 -20 -9 -28 8 -6 19 -3 35 13 30 28 7 42 -26
15z"/>
<path d="M7375 59 c-75 -27 -87 -28 -181 -23 -70 4 -104 3 -108 -5 -4 -6 -26
-11 -49 -11 -23 0 -49 -5 -57 -10 -10 -6 74 -10 248 -10 144 0 262 2 262 5 0
3 -10 10 -22 16 -17 7 -5 8 45 5 74 -6 82 2 36 35 -41 31 -87 30 -174 -2z"/>
</g>
</svg>
